<?xml version="1.0" encoding="UTF-8" standalone="no"?><!DOCTYPE svg PUBLIC "-//W3C//DTD SVG 1.1//EN" "http://www.w3.org/Graphics/SVG/1.1/DTD/svg11.dtd"><!-- Generated by graphviz version 2.40.1 (20161225.0304)
 --><!-- Title: G Pages: 1 --><svg xmlns="http://www.w3.org/2000/svg" xmlns:xlink="http://www.w3.org/1999/xlink" width="2834pt" height="476pt" viewBox="0.00 0.00 2833.86 476.00">
<g id="graph0" class="graph" transform="scale(1 1) rotate(0) translate(4 472)">
<title>G</title>
<polygon fill="#ffffff" stroke="transparent" points="-4,4 -4,-472 2829.858,-472 2829.858,4 -4,4"/>
<!-- aws_security_group.app&#45;sg -->
<g id="node1" class="node">
<title>aws_security_group.app-sg</title>
<polygon fill="none" stroke="#000000" points="613.8524,-180 444.7277,-180 444.7277,-144 613.8524,-144 613.8524,-180"/>
<text text-anchor="middle" x="529.29" y="-157.8" font-family="Times,serif" font-size="14.00" fill="#000000">aws_security_group.app-sg</text>
</g>
<!-- aws_vpc.my&#45;vpc -->
<g id="node2" class="node">
<title>aws_vpc.my-vpc</title>
<ellipse fill="none" stroke="#000000" cx="1290.29" cy="-18" rx="76.9719" ry="18"/>
<text text-anchor="middle" x="1290.29" y="-13.8" font-family="Times,serif" font-size="14.00" fill="#000000">aws_vpc.my-vpc</text>
</g>
<!-- aws_security_group.app&#45;sg&#45;&gt;aws_vpc.my&#45;vpc -->
<g id="edge1" class="edge">
<title>aws_security_group.app-sg-&gt;aws_vpc.my-vpc</title>
<path fill="none" stroke="#000000" d="M597.9236,-143.9879C674.4491,-124.3561 802.0948,-92.9523 913.29,-72 1015.7382,-52.6959 1134.9997,-36.6866 1211.5016,-27.2362"/>
<polygon fill="#000000" stroke="#000000" points="1212.0431,-30.6961 1221.542,-26.0033 1211.1899,-23.7483 1212.0431,-30.6961"/>
</g>
<!-- aws_security_group.httpd&#45;sg -->
<g id="node3" class="node">
<title>aws_security_group.httpd-sg</title>
<polygon fill="none" stroke="#000000" points="1100.4185,-108 922.1616,-108 922.1616,-72 1100.4185,-72 1100.4185,-108"/>
<text text-anchor="middle" x="1011.29" y="-85.8" font-family="Times,serif" font-size="14.00" fill="#000000">aws_security_group.httpd-sg</text>
</g>
<!-- aws_security_group.app&#45;sg&#45;&gt;aws_security_group.httpd&#45;sg -->
<g id="edge2" class="edge">
<title>aws_security_group.app-sg-&gt;aws_security_group.httpd-sg</title>
<path fill="none" stroke="#000000" d="M614.0573,-145.5623C617.1718,-145.0238 620.2572,-144.5011 623.29,-144 721.0611,-127.846 833.2302,-112.5872 911.7339,-102.4377"/>
<polygon fill="#000000" stroke="#000000" points="912.6293,-105.8513 922.1,-101.1019 911.7346,-98.9087 912.6293,-105.8513"/>
</g>
<!-- aws_security_group.httpd&#45;sg&#45;&gt;aws_vpc.my&#45;vpc -->
<g id="edge4" class="edge">
<title>aws_security_group.httpd-sg-&gt;aws_vpc.my-vpc</title>
<path fill="none" stroke="#000000" d="M1081.3334,-71.9243C1126.5584,-60.2533 1184.8591,-45.208 1228.3825,-33.9761"/>
<polygon fill="#000000" stroke="#000000" points="1229.4629,-37.3121 1238.271,-31.4243 1227.7137,-30.5341 1229.4629,-37.3121"/>
</g>
<!-- aws_launch_configuration.httpd&#45;lc -->
<g id="node4" class="node">
<title>aws_launch_configuration.httpd-lc</title>
<ellipse fill="none" stroke="#000000" cx="1202.29" cy="-162" rx="145.8533" ry="18"/>
<text text-anchor="middle" x="1202.29" y="-157.8" font-family="Times,serif" font-size="14.00" fill="#000000">aws_launch_configuration.httpd-lc</text>
</g>
<!-- aws_launch_configuration.httpd&#45;lc&#45;&gt;aws_security_group.httpd&#45;sg -->
<g id="edge3" class="edge">
<title>aws_launch_configuration.httpd-lc-&gt;aws_security_group.httpd-sg</title>
<path fill="none" stroke="#000000" d="M1156.5408,-144.7542C1130.2805,-134.855 1097.0572,-122.3311 1069.0144,-111.76"/>
<polygon fill="#000000" stroke="#000000" points="1069.9232,-108.3622 1059.3313,-108.1098 1067.454,-114.9122 1069.9232,-108.3622"/>
</g>
<!-- aws_lb_listener.app&#45;alb&#45;lstr -->
<g id="node5" class="node">
<title>aws_lb_listener.app-alb-lstr</title>
<ellipse fill="none" stroke="#000000" cx="1311.29" cy="-378" rx="118.6332" ry="18"/>
<text text-anchor="middle" x="1311.29" y="-373.8" font-family="Times,serif" font-size="14.00" fill="#000000">aws_lb_listener.app-alb-lstr</text>
</g>
<!-- aws_lb.app&#45;alb -->
<g id="node6" class="node">
<title>aws_lb.app-alb</title>
<ellipse fill="none" stroke="#000000" cx="1011.29" cy="-234" rx="69.5254" ry="18"/>
<text text-anchor="middle" x="1011.29" y="-229.8" font-family="Times,serif" font-size="14.00" fill="#000000">aws_lb.app-alb</text>
</g>
<!-- aws_lb_listener.app&#45;alb&#45;lstr&#45;&gt;aws_lb.app&#45;alb -->
<g id="edge5" class="edge">
<title>aws_lb_listener.app-alb-lstr-&gt;aws_lb.app-alb</title>
<path fill="none" stroke="#000000" d="M1224.7522,-365.6176C1166.2317,-355.9426 1095.2332,-341.2658 1070.29,-324 1048.0105,-308.578 1032.0386,-281.7441 1022.3782,-261.3784"/>
<polygon fill="#000000" stroke="#000000" points="1025.5669,-259.9353 1018.2633,-252.2601 1019.1865,-262.8146 1025.5669,-259.9353"/>
</g>
<!-- aws_lb_target_group.app&#45;alb&#45;tg -->
<g id="node7" class="node">
<title>aws_lb_target_group.app-alb-tg</title>
<ellipse fill="none" stroke="#000000" cx="1214.29" cy="-306" rx="134.818" ry="18"/>
<text text-anchor="middle" x="1214.29" y="-301.8" font-family="Times,serif" font-size="14.00" fill="#000000">aws_lb_target_group.app-alb-tg</text>
</g>
<!-- aws_lb_listener.app&#45;alb&#45;lstr&#45;&gt;aws_lb_target_group.app&#45;alb&#45;tg -->
<g id="edge6" class="edge">
<title>aws_lb_listener.app-alb-lstr-&gt;aws_lb_target_group.app-alb-tg</title>
<path fill="none" stroke="#000000" d="M1287.3125,-360.2022C1275.0708,-351.1156 1260.0004,-339.9294 1246.7359,-330.0836"/>
<polygon fill="#000000" stroke="#000000" points="1248.4437,-326.9924 1238.3279,-323.8425 1244.2716,-332.6132 1248.4437,-326.9924"/>
</g>
<!-- aws_security_group.app&#45;alb&#45;sg -->
<g id="node14" class="node">
<title>aws_security_group.app-alb-sg</title>
<polygon fill="none" stroke="#000000" points="1386.1179,-108 1194.4622,-108 1194.4622,-72 1386.1179,-72 1386.1179,-108"/>
<text text-anchor="middle" x="1290.29" y="-85.8" font-family="Times,serif" font-size="14.00" fill="#000000">aws_security_group.app-alb-sg</text>
</g>
<!-- aws_lb.app&#45;alb&#45;&gt;aws_security_group.app&#45;alb&#45;sg -->
<g id="edge12" class="edge">
<title>aws_lb.app-alb-&gt;aws_security_group.app-alb-sg</title>
<path fill="none" stroke="#000000" d="M1077.5853,-228.2665C1172.9286,-219.341 1339.3504,-200.9567 1357.29,-180 1367.6949,-167.8453 1364.1949,-158.4334 1357.29,-144 1351.694,-132.3025 1342.1907,-122.3295 1332.0729,-114.2563"/>
<polygon fill="#000000" stroke="#000000" points="1334.0081,-111.3341 1323.8898,-108.1924 1329.8404,-116.9583 1334.0081,-111.3341"/>
</g>
<!-- aws_subnet.app&#45;sub&#45;a -->
<g id="node15" class="node">
<title>aws_subnet.app-sub-a</title>
<ellipse fill="none" stroke="#000000" cx="941.29" cy="-162" rx="96.6536" ry="18"/>
<text text-anchor="middle" x="941.29" y="-157.8" font-family="Times,serif" font-size="14.00" fill="#000000">aws_subnet.app-sub-a</text>
</g>
<!-- aws_lb.app&#45;alb&#45;&gt;aws_subnet.app&#45;sub&#45;a -->
<g id="edge13" class="edge">
<title>aws_lb.app-alb-&gt;aws_subnet.app-sub-a</title>
<path fill="none" stroke="#000000" d="M993.9867,-216.2022C985.489,-207.4617 975.1026,-196.7786 965.8041,-187.2144"/>
<polygon fill="#000000" stroke="#000000" points="968.1173,-184.5727 958.637,-179.8425 963.0983,-189.4523 968.1173,-184.5727"/>
</g>
<!-- aws_subnet.app&#45;sub&#45;b -->
<g id="node16" class="node">
<title>aws_subnet.app-sub-b</title>
<ellipse fill="none" stroke="#000000" cx="729.29" cy="-162" rx="97.2372" ry="18"/>
<text text-anchor="middle" x="729.29" y="-157.8" font-family="Times,serif" font-size="14.00" fill="#000000">aws_subnet.app-sub-b</text>
</g>
<!-- aws_lb.app&#45;alb&#45;&gt;aws_subnet.app&#45;sub&#45;b -->
<g id="edge14" class="edge">
<title>aws_lb.app-alb-&gt;aws_subnet.app-sub-b</title>
<path fill="none" stroke="#000000" d="M961.5232,-221.2936C915.7183,-209.5987 847.4022,-192.1563 796.7117,-179.214"/>
<polygon fill="#000000" stroke="#000000" points="797.3755,-175.7713 786.8205,-176.6886 795.6438,-182.5537 797.3755,-175.7713"/>
</g>
<!-- aws_lb_target_group.app&#45;alb&#45;tg&#45;&gt;aws_vpc.my&#45;vpc -->
<g id="edge39" class="edge">
<title>aws_lb_target_group.app-alb-tg-&gt;aws_vpc.my-vpc</title>
<path fill="none" stroke="#000000" d="M1240.4909,-288.3304C1280.9905,-260.5472 1356.0415,-207.0343 1374.29,-180 1392.9394,-152.3719 1390.576,-140.9983 1395.29,-108 1397.5528,-92.1608 1403.6243,-85.658 1395.29,-72 1385.2448,-55.5381 1368.4024,-43.8827 1351.1151,-35.7243"/>
<polygon fill="#000000" stroke="#000000" points="1352.0718,-32.3236 1341.5057,-31.5433 1349.279,-38.7424 1352.0718,-32.3236"/>
</g>
<!-- aws_lb_target_group.app&#45;alb&#45;tg&#45;&gt;aws_lb.app&#45;alb -->
<g id="edge40" class="edge">
<title>aws_lb_target_group.app-alb-tg-&gt;aws_lb.app-alb</title>
<path fill="none" stroke="#000000" d="M1166.6956,-289.1192C1135.2596,-277.9695 1094.1054,-263.3729 1062.0452,-252.0018"/>
<polygon fill="#000000" stroke="#000000" points="1063.0031,-248.628 1052.4083,-248.5838 1060.6631,-255.2253 1063.0031,-248.628"/>
</g>
<!-- aws_subnet.httpd&#45;sub&#45;b -->
<g id="node8" class="node">
<title>aws_subnet.httpd-sub-b</title>
<ellipse fill="none" stroke="#000000" cx="1545.29" cy="-90" rx="103.0552" ry="18"/>
<text text-anchor="middle" x="1545.29" y="-85.8" font-family="Times,serif" font-size="14.00" fill="#000000">aws_subnet.httpd-sub-b</text>
</g>
<!-- aws_subnet.httpd&#45;sub&#45;b&#45;&gt;aws_vpc.my&#45;vpc -->
<g id="edge7" class="edge">
<title>aws_subnet.httpd-sub-b-&gt;aws_vpc.my-vpc</title>
<path fill="none" stroke="#000000" d="M1490.8989,-74.6425C1449.2388,-62.8797 1391.8504,-46.6759 1349.1239,-34.6119"/>
<polygon fill="#000000" stroke="#000000" points="1349.9954,-31.2212 1339.4206,-31.8722 1348.0933,-37.9578 1349.9954,-31.2212"/>
</g>
<!-- aws_db_subnet_group.default -->
<g id="node9" class="node">
<title>aws_db_subnet_group.default</title>
<ellipse fill="none" stroke="#000000" cx="261.29" cy="-162" rx="127.3189" ry="18"/>
<text text-anchor="middle" x="261.29" y="-157.8" font-family="Times,serif" font-size="14.00" fill="#000000">aws_db_subnet_group.default</text>
</g>
<!-- aws_subnet.db&#45;sub&#45;a -->
<g id="node10" class="node">
<title>aws_subnet.db-sub-a</title>
<ellipse fill="none" stroke="#000000" cx="92.29" cy="-90" rx="92.0806" ry="18"/>
<text text-anchor="middle" x="92.29" y="-85.8" font-family="Times,serif" font-size="14.00" fill="#000000">aws_subnet.db-sub-a</text>
</g>
<!-- aws_db_subnet_group.default&#45;&gt;aws_subnet.db&#45;sub&#45;a -->
<g id="edge8" class="edge">
<title>aws_db_subnet_group.default-&gt;aws_subnet.db-sub-a</title>
<path fill="none" stroke="#000000" d="M220.8103,-144.7542C196.6521,-134.4619 165.8337,-121.3322 140.4319,-110.5101"/>
<polygon fill="#000000" stroke="#000000" points="141.5584,-107.1857 130.9867,-106.4862 138.8148,-113.6256 141.5584,-107.1857"/>
</g>
<!-- aws_subnet.db&#45;sub&#45;b -->
<g id="node11" class="node">
<title>aws_subnet.db-sub-b</title>
<ellipse fill="none" stroke="#000000" cx="295.29" cy="-90" rx="92.6639" ry="18"/>
<text text-anchor="middle" x="295.29" y="-85.8" font-family="Times,serif" font-size="14.00" fill="#000000">aws_subnet.db-sub-b</text>
</g>
<!-- aws_db_subnet_group.default&#45;&gt;aws_subnet.db&#45;sub&#45;b -->
<g id="edge9" class="edge">
<title>aws_db_subnet_group.default-&gt;aws_subnet.db-sub-b</title>
<path fill="none" stroke="#000000" d="M269.8697,-143.8314C273.6259,-135.8771 278.1158,-126.369 282.2698,-117.5723"/>
<polygon fill="#000000" stroke="#000000" points="285.4896,-118.9503 286.5949,-108.4133 279.1599,-115.9612 285.4896,-118.9503"/>
</g>
<!-- aws_subnet.db&#45;sub&#45;a&#45;&gt;aws_vpc.my&#45;vpc -->
<g id="edge63" class="edge">
<title>aws_subnet.db-sub-a-&gt;aws_vpc.my-vpc</title>
<path fill="none" stroke="#000000" d="M157.3095,-77.1585C169.2385,-75.1601 181.6094,-73.3229 193.29,-72 388.6398,-49.8754 981.0358,-28.3571 1204.0974,-20.8231"/>
<polygon fill="#000000" stroke="#000000" points="1204.2413,-24.3204 1214.1179,-20.4857 1204.0057,-17.3243 1204.2413,-24.3204"/>
</g>
<!-- aws_subnet.db&#45;sub&#45;b&#45;&gt;aws_vpc.my&#45;vpc -->
<g id="edge58" class="edge">
<title>aws_subnet.db-sub-b-&gt;aws_vpc.my-vpc</title>
<path fill="none" stroke="#000000" d="M362.4886,-77.5786C375.6504,-75.462 389.3762,-73.4747 402.29,-72 694.9091,-38.5851 1044.2964,-24.9888 1203.5246,-20.2261"/>
<polygon fill="#000000" stroke="#000000" points="1203.8426,-23.7184 1213.735,-19.9251 1203.6362,-16.7214 1203.8426,-23.7184"/>
</g>
<!-- aws_autoscaling_attachment.app&#45;alb&#45;att -->
<g id="node12" class="node">
<title>aws_autoscaling_attachment.app-alb-att</title>
<ellipse fill="none" stroke="#000000" cx="1008.29" cy="-378" rx="166.0904" ry="18"/>
<text text-anchor="middle" x="1008.29" y="-373.8" font-family="Times,serif" font-size="14.00" fill="#000000">aws_autoscaling_attachment.app-alb-att</text>
</g>
<!-- aws_autoscaling_attachment.app&#45;alb&#45;att&#45;&gt;aws_lb_target_group.app&#45;alb&#45;tg -->
<g id="edge11" class="edge">
<title>aws_autoscaling_attachment.app-alb-att-&gt;aws_lb_target_group.app-alb-tg</title>
<path fill="none" stroke="#000000" d="M1057.6322,-360.7542C1087.2762,-350.3932 1125.1472,-337.1567 1156.2278,-326.2936"/>
<polygon fill="#000000" stroke="#000000" points="1157.7761,-329.4601 1166.0613,-322.8566 1155.4665,-322.8521 1157.7761,-329.4601"/>
</g>
<!-- aws_autoscaling_group.app&#45;asg -->
<g id="node13" class="node">
<title>aws_autoscaling_group.app-asg</title>
<ellipse fill="none" stroke="#000000" cx="812.29" cy="-306" rx="134.82" ry="18"/>
<text text-anchor="middle" x="812.29" y="-301.8" font-family="Times,serif" font-size="14.00" fill="#000000">aws_autoscaling_group.app-asg</text>
</g>
<!-- aws_autoscaling_attachment.app&#45;alb&#45;att&#45;&gt;aws_autoscaling_group.app&#45;asg -->
<g id="edge10" class="edge">
<title>aws_autoscaling_attachment.app-alb-att-&gt;aws_autoscaling_group.app-asg</title>
<path fill="none" stroke="#000000" d="M960.8439,-360.5708C932.954,-350.3255 897.5417,-337.3169 868.2879,-326.5706"/>
<polygon fill="#000000" stroke="#000000" points="869.2165,-323.1831 858.6229,-323.0202 866.8027,-329.7538 869.2165,-323.1831"/>
</g>
<!-- aws_autoscaling_group.app&#45;asg&#45;&gt;aws_lb.app&#45;alb -->
<g id="edge22" class="edge">
<title>aws_autoscaling_group.app-asg-&gt;aws_lb.app-alb</title>
<path fill="none" stroke="#000000" d="M859.1983,-289.0282C889.9183,-277.9134 930.0244,-263.4027 961.3388,-252.0728"/>
<polygon fill="#000000" stroke="#000000" points="962.5421,-255.3596 970.7547,-248.6661 960.1604,-248.7772 962.5421,-255.3596"/>
</g>
<!-- aws_autoscaling_group.app&#45;asg&#45;&gt;aws_subnet.app&#45;sub&#45;a -->
<g id="edge20" class="edge">
<title>aws_autoscaling_group.app-asg-&gt;aws_subnet.app-sub-a</title>
<path fill="none" stroke="#000000" d="M828.3672,-288.0535C850.9626,-262.8306 892.2419,-216.7514 918.1415,-187.8403"/>
<polygon fill="#000000" stroke="#000000" points="920.9447,-189.9565 925.0103,-180.1727 915.7309,-185.2857 920.9447,-189.9565"/>
</g>
<!-- aws_autoscaling_group.app&#45;asg&#45;&gt;aws_subnet.app&#45;sub&#45;b -->
<g id="edge21" class="edge">
<title>aws_autoscaling_group.app-asg-&gt;aws_subnet.app-sub-b</title>
<path fill="none" stroke="#000000" d="M811.8792,-287.8417C810.7002,-268.7181 806.6507,-238.3396 793.29,-216 786.2735,-204.268 775.7768,-193.8691 765.3032,-185.4068"/>
<polygon fill="#000000" stroke="#000000" points="767.4244,-182.6228 757.3565,-179.3231 763.1692,-188.181 767.4244,-182.6228"/>
</g>
<!-- aws_launch_configuration.app&#45;lc -->
<g id="node23" class="node">
<title>aws_launch_configuration.app-lc</title>
<ellipse fill="none" stroke="#000000" cx="644.29" cy="-234" rx="140.0351" ry="18"/>
<text text-anchor="middle" x="644.29" y="-229.8" font-family="Times,serif" font-size="14.00" fill="#000000">aws_launch_configuration.app-lc</text>
</g>
<!-- aws_autoscaling_group.app&#45;asg&#45;&gt;aws_launch_configuration.app&#45;lc -->
<g id="edge19" class="edge">
<title>aws_autoscaling_group.app-asg-&gt;aws_launch_configuration.app-lc</title>
<path fill="none" stroke="#000000" d="M772.0499,-288.7542C748.6371,-278.7202 718.9317,-265.9893 694.0576,-255.329"/>
<polygon fill="#000000" stroke="#000000" points="695.3543,-252.0769 684.7841,-251.3546 692.5969,-258.5109 695.3543,-252.0769"/>
</g>
<!-- aws_security_group.app&#45;alb&#45;sg&#45;&gt;aws_vpc.my&#45;vpc -->
<g id="edge31" class="edge">
<title>aws_security_group.app-alb-sg-&gt;aws_vpc.my-vpc</title>
<path fill="none" stroke="#000000" d="M1290.29,-71.8314C1290.29,-64.131 1290.29,-54.9743 1290.29,-46.4166"/>
<polygon fill="#000000" stroke="#000000" points="1293.7901,-46.4132 1290.29,-36.4133 1286.7901,-46.4133 1293.7901,-46.4132"/>
</g>
<!-- aws_subnet.app&#45;sub&#45;a&#45;&gt;aws_vpc.my&#45;vpc -->
<g id="edge41" class="edge">
<title>aws_subnet.app-sub-a-&gt;aws_vpc.my-vpc</title>
<path fill="none" stroke="#000000" d="M1014.7967,-150.2291C1054.1421,-141.9955 1102.5427,-128.6798 1142.29,-108 1164.401,-96.4961 1164.5241,-85.7844 1185.29,-72 1204.0763,-59.5297 1226.1044,-47.8059 1245.1199,-38.4896"/>
<polygon fill="#000000" stroke="#000000" points="1246.699,-41.6138 1254.1853,-34.1168 1243.6578,-35.309 1246.699,-41.6138"/>
</g>
<!-- aws_subnet.app&#45;sub&#45;b&#45;&gt;aws_vpc.my&#45;vpc -->
<g id="edge38" class="edge">
<title>aws_subnet.app-sub-b-&gt;aws_vpc.my-vpc</title>
<path fill="none" stroke="#000000" d="M799.933,-149.6242C811.7277,-147.667 823.8459,-145.7228 835.29,-144 956.7458,-125.7155 1000.3309,-164.6898 1109.29,-108 1128.5449,-97.982 1124.2466,-84.0642 1142.29,-72 1167.7042,-55.0077 1199.1396,-42.5594 1226.4935,-33.9264"/>
<polygon fill="#000000" stroke="#000000" points="1227.8226,-37.1804 1236.3679,-30.9172 1225.7819,-30.4844 1227.8226,-37.1804"/>
</g>
<!-- aws_lb_listener.httpd&#45;alb&#45;lstr -->
<g id="node17" class="node">
<title>aws_lb_listener.httpd-alb-lstr</title>
<ellipse fill="none" stroke="#000000" cx="2679.29" cy="-306" rx="124.4513" ry="18"/>
<text text-anchor="middle" x="2679.29" y="-301.8" font-family="Times,serif" font-size="14.00" fill="#000000">aws_lb_listener.httpd-alb-lstr</text>
</g>
<!-- aws_lb.httpd&#45;alb -->
<g id="node18" class="node">
<title>aws_lb.httpd-alb</title>
<ellipse fill="none" stroke="#000000" cx="2273.29" cy="-162" rx="75.8432" ry="18"/>
<text text-anchor="middle" x="2273.29" y="-157.8" font-family="Times,serif" font-size="14.00" fill="#000000">aws_lb.httpd-alb</text>
</g>
<!-- aws_lb_listener.httpd&#45;alb&#45;lstr&#45;&gt;aws_lb.httpd&#45;alb -->
<g id="edge15" class="edge">
<title>aws_lb_listener.httpd-alb-lstr-&gt;aws_lb.httpd-alb</title>
<path fill="none" stroke="#000000" d="M2621.1109,-290.0565C2593.8596,-281.1495 2561.6679,-268.4852 2535.29,-252 2515.5615,-239.6704 2517.7347,-227.1018 2497.29,-216 2452.6784,-191.775 2397.2521,-178.2978 2352.6956,-170.8656"/>
<polygon fill="#000000" stroke="#000000" points="2353.2092,-167.4033 2342.782,-169.281 2352.1042,-174.3156 2353.2092,-167.4033"/>
</g>
<!-- aws_lb_target_group.httpd&#45;alb&#45;tg -->
<g id="node19" class="node">
<title>aws_lb_target_group.httpd-alb-tg</title>
<ellipse fill="none" stroke="#000000" cx="2685.29" cy="-234" rx="140.636" ry="18"/>
<text text-anchor="middle" x="2685.29" y="-229.8" font-family="Times,serif" font-size="14.00" fill="#000000">aws_lb_target_group.httpd-alb-tg</text>
</g>
<!-- aws_lb_listener.httpd&#45;alb&#45;lstr&#45;&gt;aws_lb_target_group.httpd&#45;alb&#45;tg -->
<g id="edge16" class="edge">
<title>aws_lb_listener.httpd-alb-lstr-&gt;aws_lb_target_group.httpd-alb-tg</title>
<path fill="none" stroke="#000000" d="M2680.8041,-287.8314C2681.4458,-280.131 2682.2088,-270.9743 2682.922,-262.4166"/>
<polygon fill="#000000" stroke="#000000" points="2686.413,-262.6694 2683.7556,-252.4133 2679.4371,-262.088 2686.413,-262.6694"/>
</g>
<!-- aws_lb.httpd&#45;alb&#45;&gt;aws_subnet.httpd&#45;sub&#45;b -->
<g id="edge47" class="edge">
<title>aws_lb.httpd-alb-&gt;aws_subnet.httpd-sub-b</title>
<path fill="none" stroke="#000000" d="M2201.5931,-155.9116C2092.2841,-146.4913 1877.4315,-127.4334 1695.29,-108 1677.2456,-106.0748 1657.9983,-103.8754 1639.5164,-101.6907"/>
<polygon fill="#000000" stroke="#000000" points="1639.6833,-98.186 1629.3398,-100.4804 1638.8565,-105.137 1639.6833,-98.186"/>
</g>
<!-- aws_security_group.httpd&#45;alb&#45;sg -->
<g id="node24" class="node">
<title>aws_security_group.httpd-alb-sg</title>
<polygon fill="none" stroke="#000000" points="2373.1843,-108 2173.3958,-108 2173.3958,-72 2373.1843,-72 2373.1843,-108"/>
<text text-anchor="middle" x="2273.29" y="-85.8" font-family="Times,serif" font-size="14.00" fill="#000000">aws_security_group.httpd-alb-sg</text>
</g>
<!-- aws_lb.httpd&#45;alb&#45;&gt;aws_security_group.httpd&#45;alb&#45;sg -->
<g id="edge45" class="edge">
<title>aws_lb.httpd-alb-&gt;aws_security_group.httpd-alb-sg</title>
<path fill="none" stroke="#000000" d="M2273.29,-143.8314C2273.29,-136.131 2273.29,-126.9743 2273.29,-118.4166"/>
<polygon fill="#000000" stroke="#000000" points="2276.7901,-118.4132 2273.29,-108.4133 2269.7901,-118.4133 2276.7901,-118.4132"/>
</g>
<!-- aws_subnet.httpd&#45;sub&#45;a -->
<g id="node26" class="node">
<title>aws_subnet.httpd-sub-a</title>
<ellipse fill="none" stroke="#000000" cx="2053.29" cy="-90" rx="102.4717" ry="18"/>
<text text-anchor="middle" x="2053.29" y="-85.8" font-family="Times,serif" font-size="14.00" fill="#000000">aws_subnet.httpd-sub-a</text>
</g>
<!-- aws_lb.httpd&#45;alb&#45;&gt;aws_subnet.httpd&#45;sub&#45;a -->
<g id="edge46" class="edge">
<title>aws_lb.httpd-alb-&gt;aws_subnet.httpd-sub-a</title>
<path fill="none" stroke="#000000" d="M2228.7698,-147.4297C2194.9996,-136.3777 2148.2839,-121.0889 2111.5432,-109.0647"/>
<polygon fill="#000000" stroke="#000000" points="2112.5415,-105.7088 2101.9488,-105.9247 2110.3642,-112.3616 2112.5415,-105.7088"/>
</g>
<!-- aws_lb_target_group.httpd&#45;alb&#45;tg&#45;&gt;aws_vpc.my&#45;vpc -->
<g id="edge61" class="edge">
<title>aws_lb_target_group.httpd-alb-tg-&gt;aws_vpc.my-vpc</title>
<path fill="none" stroke="#000000" d="M2660.9717,-216.0779C2611.5174,-180.7912 2494.3888,-103.0481 2382.29,-72 2286.6546,-45.5118 1618.5807,-26.2651 1377.1122,-20.1045"/>
<polygon fill="#000000" stroke="#000000" points="1377.0598,-16.6021 1366.9741,-19.8471 1376.8821,-23.5999 1377.0598,-16.6021"/>
</g>
<!-- aws_lb_target_group.httpd&#45;alb&#45;tg&#45;&gt;aws_lb.httpd&#45;alb -->
<g id="edge62" class="edge">
<title>aws_lb_target_group.httpd-alb-tg-&gt;aws_lb.httpd-alb</title>
<path fill="none" stroke="#000000" d="M2601.9157,-219.4297C2526.3905,-206.2312 2416.2903,-186.9903 2344.7206,-174.483"/>
<polygon fill="#000000" stroke="#000000" points="2344.9026,-170.9619 2334.4494,-172.688 2343.6975,-177.8574 2344.9026,-170.9619"/>
</g>
<!-- aws_autoscaling_policy.app&#45;policy&#45;down -->
<g id="node20" class="node">
<title>aws_autoscaling_policy.app-policy-down</title>
<ellipse fill="none" stroke="#000000" cx="238.29" cy="-378" rx="172.4221" ry="18"/>
<text text-anchor="middle" x="238.29" y="-373.8" font-family="Times,serif" font-size="14.00" fill="#000000">aws_autoscaling_policy.app-policy-down</text>
</g>
<!-- aws_autoscaling_policy.app&#45;policy&#45;down&#45;&gt;aws_autoscaling_group.app&#45;asg -->
<g id="edge17" class="edge">
<title>aws_autoscaling_policy.app-policy-down-&gt;aws_autoscaling_group.app-asg</title>
<path fill="none" stroke="#000000" d="M348.6233,-364.1603C450.8922,-351.3321 602.1436,-332.3598 703.8142,-319.6067"/>
<polygon fill="#000000" stroke="#000000" points="704.3158,-323.0713 713.8024,-318.3539 703.4445,-316.1258 704.3158,-323.0713"/>
</g>
<!-- aws_autoscaling_policy.httpd&#45;policy&#45;up -->
<g id="node21" class="node">
<title>aws_autoscaling_policy.httpd-policy-up</title>
<ellipse fill="none" stroke="#000000" cx="1958.29" cy="-306" rx="166.1405" ry="18"/>
<text text-anchor="middle" x="1958.29" y="-301.8" font-family="Times,serif" font-size="14.00" fill="#000000">aws_autoscaling_policy.httpd-policy-up</text>
</g>
<!-- aws_autoscaling_group.httpd&#45;asg -->
<g id="node22" class="node">
<title>aws_autoscaling_group.httpd-asg</title>
<ellipse fill="none" stroke="#000000" cx="1766.29" cy="-234" rx="140.638" ry="18"/>
<text text-anchor="middle" x="1766.29" y="-229.8" font-family="Times,serif" font-size="14.00" fill="#000000">aws_autoscaling_group.httpd-asg</text>
</g>
<!-- aws_autoscaling_policy.httpd&#45;policy&#45;up&#45;&gt;aws_autoscaling_group.httpd&#45;asg -->
<g id="edge18" class="edge">
<title>aws_autoscaling_policy.httpd-policy-up-&gt;aws_autoscaling_group.httpd-asg</title>
<path fill="none" stroke="#000000" d="M1911.8122,-288.5708C1884.5912,-278.3629 1850.0549,-265.4118 1821.4591,-254.6884"/>
<polygon fill="#000000" stroke="#000000" points="1822.6005,-251.3785 1812.0082,-251.1443 1820.1426,-257.9328 1822.6005,-251.3785"/>
</g>
<!-- aws_autoscaling_group.httpd&#45;asg&#45;&gt;aws_launch_configuration.httpd&#45;lc -->
<g id="edge26" class="edge">
<title>aws_autoscaling_group.httpd-asg-&gt;aws_launch_configuration.httpd-lc</title>
<path fill="none" stroke="#000000" d="M1666.4324,-221.2522C1567.6844,-208.6461 1416.855,-189.3913 1314.1341,-176.278"/>
<polygon fill="#000000" stroke="#000000" points="1314.3989,-172.7834 1304.0361,-174.9889 1313.5124,-179.7271 1314.3989,-172.7834"/>
</g>
<!-- aws_autoscaling_group.httpd&#45;asg&#45;&gt;aws_subnet.httpd&#45;sub&#45;b -->
<g id="edge28" class="edge">
<title>aws_autoscaling_group.httpd-asg-&gt;aws_subnet.httpd-sub-b</title>
<path fill="none" stroke="#000000" d="M1737.8722,-216.1316C1721.3163,-205.6755 1700.0663,-192.1755 1681.29,-180 1646.6713,-157.5515 1607.3956,-131.4964 1579.9831,-113.2152"/>
<polygon fill="#000000" stroke="#000000" points="1581.7813,-110.2075 1571.5207,-107.5673 1577.8954,-116.0298 1581.7813,-110.2075"/>
</g>
<!-- aws_autoscaling_group.httpd&#45;asg&#45;&gt;aws_lb.httpd&#45;alb -->
<g id="edge29" class="edge">
<title>aws_autoscaling_group.httpd-asg-&gt;aws_lb.httpd-alb</title>
<path fill="none" stroke="#000000" d="M1860.4647,-220.6261C1957.9392,-206.7835 2108.2665,-185.4353 2198.0917,-172.6791"/>
<polygon fill="#000000" stroke="#000000" points="2198.7926,-176.1147 2208.2011,-171.2434 2197.8083,-169.1843 2198.7926,-176.1147"/>
</g>
<!-- aws_autoscaling_group.httpd&#45;asg&#45;&gt;aws_subnet.httpd&#45;sub&#45;a -->
<g id="edge27" class="edge">
<title>aws_autoscaling_group.httpd-asg-&gt;aws_subnet.httpd-sub-a</title>
<path fill="none" stroke="#000000" d="M1814.9996,-217.0317C1841.5571,-207.2284 1874.7403,-194.0718 1903.29,-180 1944.1464,-159.8624 1988.6169,-132.4285 2018.4426,-113.16"/>
<polygon fill="#000000" stroke="#000000" points="2020.7334,-115.8453 2027.2085,-107.4594 2016.9172,-109.9771 2020.7334,-115.8453"/>
</g>
<!-- aws_launch_configuration.app&#45;lc&#45;&gt;aws_security_group.app&#45;sg -->
<g id="edge57" class="edge">
<title>aws_launch_configuration.app-lc-&gt;aws_security_group.app-sg</title>
<path fill="none" stroke="#000000" d="M615.8631,-216.2022C601.0472,-206.9262 582.7367,-195.4623 566.7766,-185.4698"/>
<polygon fill="#000000" stroke="#000000" points="568.522,-182.4332 558.1888,-180.0931 564.8073,-188.3663 568.522,-182.4332"/>
</g>
<!-- aws_security_group.httpd&#45;alb&#45;sg&#45;&gt;aws_vpc.my&#45;vpc -->
<g id="edge23" class="edge">
<title>aws_security_group.httpd-alb-sg-&gt;aws_vpc.my-vpc</title>
<path fill="none" stroke="#000000" d="M2173.2618,-73.0751C2170.24,-72.6941 2167.2441,-72.3343 2164.29,-72 1876.7882,-39.4655 1533.7028,-25.4599 1376.5844,-20.4149"/>
<polygon fill="#000000" stroke="#000000" points="1376.6127,-16.9141 1366.5068,-20.0954 1376.3909,-23.9106 1376.6127,-16.9141"/>
</g>
<!-- aws_autoscaling_attachment.httpd&#45;alb&#45;att -->
<g id="node25" class="node">
<title>aws_autoscaling_attachment.httpd-alb-att</title>
<ellipse fill="none" stroke="#000000" cx="2360.29" cy="-306" rx="172.4085" ry="18"/>
<text text-anchor="middle" x="2360.29" y="-301.8" font-family="Times,serif" font-size="14.00" fill="#000000">aws_autoscaling_attachment.httpd-alb-att</text>
</g>
<!-- aws_autoscaling_attachment.httpd&#45;alb&#45;att&#45;&gt;aws_lb_target_group.httpd&#45;alb&#45;tg -->
<g id="edge25" class="edge">
<title>aws_autoscaling_attachment.httpd-alb-att-&gt;aws_lb_target_group.httpd-alb-tg</title>
<path fill="none" stroke="#000000" d="M2434.0376,-289.6621C2484.9731,-278.3779 2552.6906,-263.3759 2604.9888,-251.7898"/>
<polygon fill="#000000" stroke="#000000" points="2605.8935,-255.1743 2614.8997,-249.5942 2604.3793,-248.34 2605.8935,-255.1743"/>
</g>
<!-- aws_autoscaling_attachment.httpd&#45;alb&#45;att&#45;&gt;aws_autoscaling_group.httpd&#45;asg -->
<g id="edge24" class="edge">
<title>aws_autoscaling_attachment.httpd-alb-att-&gt;aws_autoscaling_group.httpd-asg</title>
<path fill="none" stroke="#000000" d="M2247.5151,-292.3303C2141.7408,-279.5092 1984.4438,-260.4429 1878.7666,-247.6335"/>
<polygon fill="#000000" stroke="#000000" points="1879.0529,-244.1427 1868.7043,-246.4139 1878.2105,-251.0918 1879.0529,-244.1427"/>
</g>
<!-- aws_subnet.httpd&#45;sub&#45;a&#45;&gt;aws_vpc.my&#45;vpc -->
<g id="edge50" class="edge">
<title>aws_subnet.httpd-sub-a-&gt;aws_vpc.my-vpc</title>
<path fill="none" stroke="#000000" d="M1979.9039,-77.381C1967.0579,-75.4081 1953.8019,-73.5221 1941.29,-72 1738.9875,-47.3898 1499.9297,-30.7223 1375.3973,-22.973"/>
<polygon fill="#000000" stroke="#000000" points="1375.3664,-19.4645 1365.1695,-22.3406 1374.9344,-26.4512 1375.3664,-19.4645"/>
</g>
<!-- aws_autoscaling_policy.app&#45;policy&#45;up -->
<g id="node27" class="node">
<title>aws_autoscaling_policy.app-policy-up</title>
<ellipse fill="none" stroke="#000000" cx="626.29" cy="-378" rx="160.3222" ry="18"/>
<text text-anchor="middle" x="626.29" y="-373.8" font-family="Times,serif" font-size="14.00" fill="#000000">aws_autoscaling_policy.app-policy-up</text>
</g>
<!-- aws_autoscaling_policy.app&#45;policy&#45;up&#45;&gt;aws_autoscaling_group.app&#45;asg -->
<g id="edge30" class="edge">
<title>aws_autoscaling_policy.app-policy-up-&gt;aws_autoscaling_group.app-asg</title>
<path fill="none" stroke="#000000" d="M671.3155,-360.5708C697.6673,-350.3701 731.0959,-337.43 758.7868,-326.7109"/>
<polygon fill="#000000" stroke="#000000" points="760.2589,-329.8942 768.3211,-323.0202 757.7319,-323.3663 760.2589,-329.8942"/>
</g>
<!-- aws_route_table.rt&#45;web -->
<g id="node28" class="node">
<title>aws_route_table.rt-web</title>
<ellipse fill="none" stroke="#000000" cx="1792.29" cy="-162" rx="101.865" ry="18"/>
<text text-anchor="middle" x="1792.29" y="-157.8" font-family="Times,serif" font-size="14.00" fill="#000000">aws_route_table.rt-web</text>
</g>
<!-- aws_route_table.rt&#45;web&#45;&gt;aws_vpc.my&#45;vpc -->
<g id="edge32" class="edge">
<title>aws_route_table.rt-web-&gt;aws_vpc.my-vpc</title>
<path fill="none" stroke="#000000" d="M1756.8847,-145.0143C1737.917,-135.253 1714.5569,-122.1416 1695.29,-108 1676.5353,-94.2342 1678.2158,-82.166 1657.29,-72 1608.7143,-48.4013 1466.2713,-32.5465 1373.7997,-24.4175"/>
<polygon fill="#000000" stroke="#000000" points="1373.8831,-20.9117 1363.6184,-23.5359 1373.2791,-27.8856 1373.8831,-20.9117"/>
</g>
<!-- aws_internet_gateway.igw -->
<g id="node29" class="node">
<title>aws_internet_gateway.igw</title>
<ellipse fill="none" stroke="#000000" cx="1818.29" cy="-90" rx="114.0467" ry="18"/>
<text text-anchor="middle" x="1818.29" y="-85.8" font-family="Times,serif" font-size="14.00" fill="#000000">aws_internet_gateway.igw</text>
</g>
<!-- aws_route_table.rt&#45;web&#45;&gt;aws_internet_gateway.igw -->
<g id="edge33" class="edge">
<title>aws_route_table.rt-web-&gt;aws_internet_gateway.igw</title>
<path fill="none" stroke="#000000" d="M1798.8509,-143.8314C1801.6928,-135.9617 1805.0838,-126.5712 1808.2319,-117.8533"/>
<polygon fill="#000000" stroke="#000000" points="1811.5362,-119.0076 1811.6408,-108.4133 1804.9524,-116.63 1811.5362,-119.0076"/>
</g>
<!-- aws_internet_gateway.igw&#45;&gt;aws_vpc.my&#45;vpc -->
<g id="edge42" class="edge">
<title>aws_internet_gateway.igw-&gt;aws_vpc.my-vpc</title>
<path fill="none" stroke="#000000" d="M1732.9229,-77.9284C1718.6878,-75.9347 1704.0731,-73.8995 1690.29,-72 1577.9514,-56.5184 1447.799,-39.0313 1367.2456,-28.2608"/>
<polygon fill="#000000" stroke="#000000" points="1367.5629,-24.7721 1357.1873,-26.9164 1366.6354,-31.7104 1367.5629,-24.7721"/>
</g>
<!-- aws_autoscaling_policy.httpd&#45;policy&#45;down -->
<g id="node30" class="node">
<title>aws_autoscaling_policy.httpd-policy-down</title>
<ellipse fill="none" stroke="#000000" cx="1558.29" cy="-306" rx="178.2401" ry="18"/>
<text text-anchor="middle" x="1558.29" y="-301.8" font-family="Times,serif" font-size="14.00" fill="#000000">aws_autoscaling_policy.httpd-policy-down</text>
</g>
<!-- aws_autoscaling_policy.httpd&#45;policy&#45;down&#45;&gt;aws_autoscaling_group.httpd&#45;asg -->
<g id="edge34" class="edge">
<title>aws_autoscaling_policy.httpd-policy-down-&gt;aws_autoscaling_group.httpd-asg</title>
<path fill="none" stroke="#000000" d="M1608.3759,-288.6626C1638.3342,-278.2924 1676.5425,-265.0664 1707.8713,-254.2219"/>
<polygon fill="#000000" stroke="#000000" points="1709.0515,-257.5172 1717.3564,-250.9386 1706.7616,-250.9023 1709.0515,-257.5172"/>
</g>
<!-- aws_route_table_association.b -->
<g id="node31" class="node">
<title>aws_route_table_association.b</title>
<ellipse fill="none" stroke="#000000" cx="1478.29" cy="-234" rx="129.0951" ry="18"/>
<text text-anchor="middle" x="1478.29" y="-229.8" font-family="Times,serif" font-size="14.00" fill="#000000">aws_route_table_association.b</text>
</g>
<!-- aws_route_table_association.b&#45;&gt;aws_subnet.httpd&#45;sub&#45;b -->
<g id="edge36" class="edge">
<title>aws_route_table_association.b-&gt;aws_subnet.httpd-sub-b</title>
<path fill="none" stroke="#000000" d="M1486.7756,-215.7623C1498.3545,-190.8764 1519.1962,-146.0822 1532.6268,-117.2165"/>
<polygon fill="#000000" stroke="#000000" points="1535.8281,-118.6328 1536.8733,-108.0896 1529.4814,-115.6798 1535.8281,-118.6328"/>
</g>
<!-- aws_route_table_association.b&#45;&gt;aws_route_table.rt&#45;web -->
<g id="edge35" class="edge">
<title>aws_route_table_association.b-&gt;aws_route_table.rt-web</title>
<path fill="none" stroke="#000000" d="M1545.6509,-218.5542C1596.9463,-206.7922 1667.4403,-190.628 1719.9301,-178.5921"/>
<polygon fill="#000000" stroke="#000000" points="1720.8798,-181.9652 1729.8446,-176.3187 1719.3152,-175.1423 1720.8798,-181.9652"/>
</g>
<!-- aws_route53_record.httpd&#45;alb&#45;dns -->
<g id="node32" class="node">
<title>aws_route53_record.httpd-alb-dns</title>
<ellipse fill="none" stroke="#000000" cx="2344.29" cy="-234" rx="143.5486" ry="18"/>
<text text-anchor="middle" x="2344.29" y="-229.8" font-family="Times,serif" font-size="14.00" fill="#000000">aws_route53_record.httpd-alb-dns</text>
</g>
<!-- aws_route53_record.httpd&#45;alb&#45;dns&#45;&gt;aws_lb.httpd&#45;alb -->
<g id="edge37" class="edge">
<title>aws_route53_record.httpd-alb-dns-&gt;aws_lb.httpd-alb</title>
<path fill="none" stroke="#000000" d="M2326.3737,-215.8314C2317.8162,-207.1533 2307.4349,-196.6257 2298.1304,-187.1902"/>
<polygon fill="#000000" stroke="#000000" points="2300.4683,-184.5763 2290.9547,-179.9134 2295.484,-189.4913 2300.4683,-184.5763"/>
</g>
<!-- aws_route_table_association.a -->
<g id="node33" class="node">
<title>aws_route_table_association.a</title>
<ellipse fill="none" stroke="#000000" cx="2053.29" cy="-234" rx="128.5117" ry="18"/>
<text text-anchor="middle" x="2053.29" y="-229.8" font-family="Times,serif" font-size="14.00" fill="#000000">aws_route_table_association.a</text>
</g>
<!-- aws_route_table_association.a&#45;&gt;aws_subnet.httpd&#45;sub&#45;a -->
<g id="edge44" class="edge">
<title>aws_route_table_association.a-&gt;aws_subnet.httpd-sub-a</title>
<path fill="none" stroke="#000000" d="M2053.29,-215.7623C2053.29,-191.201 2053.29,-147.2474 2053.29,-118.3541"/>
<polygon fill="#000000" stroke="#000000" points="2056.7901,-118.0896 2053.29,-108.0896 2049.7901,-118.0897 2056.7901,-118.0896"/>
</g>
<!-- aws_route_table_association.a&#45;&gt;aws_route_table.rt&#45;web -->
<g id="edge43" class="edge">
<title>aws_route_table_association.a-&gt;aws_route_table.rt-web</title>
<path fill="none" stroke="#000000" d="M1995.0414,-217.9314C1954.2883,-206.6892 1899.8083,-191.6602 1857.5848,-180.0123"/>
<polygon fill="#000000" stroke="#000000" points="1858.2502,-176.5652 1847.6795,-177.2798 1856.3886,-183.3132 1858.2502,-176.5652"/>
</g>
<!-- aws_security_group.db&#45;sg -->
<g id="node34" class="node">
<title>aws_security_group.db-sg</title>
<polygon fill="none" stroke="#000000" points="486.1376,-252 322.4425,-252 322.4425,-216 486.1376,-216 486.1376,-252"/>
<text text-anchor="middle" x="404.29" y="-229.8" font-family="Times,serif" font-size="14.00" fill="#000000">aws_security_group.db-sg</text>
</g>
<!-- aws_security_group.db&#45;sg&#45;&gt;aws_security_group.app&#45;sg -->
<g id="edge49" class="edge">
<title>aws_security_group.db-sg-&gt;aws_security_group.app-sg</title>
<path fill="none" stroke="#000000" d="M435.8328,-215.8314C451.9691,-206.5368 471.7886,-195.1208 489.0173,-185.1971"/>
<polygon fill="#000000" stroke="#000000" points="490.839,-188.187 497.7574,-180.1628 487.3451,-182.1212 490.839,-188.187"/>
</g>
<!-- aws_security_group.db&#45;sg&#45;&gt;aws_vpc.my&#45;vpc -->
<g id="edge48" class="edge">
<title>aws_security_group.db-sg-&gt;aws_vpc.my-vpc</title>
<path fill="none" stroke="#000000" d="M405.4394,-215.9843C407.7401,-195.5155 414.6365,-162.5538 435.29,-144 542.1233,-48.0278 608.5642,-95.1902 750.29,-72 910.1739,-45.8387 1098.9042,-30.4589 1205.5943,-23.1801"/>
<polygon fill="#000000" stroke="#000000" points="1205.9176,-26.6663 1215.6593,-22.5009 1205.4463,-19.6822 1205.9176,-26.6663"/>
</g>
<!-- aws_cloudwatch_metric_alarm.app_cpu_alarm_up -->
<g id="node35" class="node">
<title>aws_cloudwatch_metric_alarm.app_cpu_alarm_up</title>
<ellipse fill="none" stroke="#000000" cx="781.29" cy="-450" rx="208.2561" ry="18"/>
<text text-anchor="middle" x="781.29" y="-445.8" font-family="Times,serif" font-size="14.00" fill="#000000">aws_cloudwatch_metric_alarm.app_cpu_alarm_up</text>
</g>
<!-- aws_cloudwatch_metric_alarm.app_cpu_alarm_up&#45;&gt;aws_autoscaling_group.app&#45;asg -->
<g id="edge51" class="edge">
<title>aws_cloudwatch_metric_alarm.app_cpu_alarm_up-&gt;aws_autoscaling_group.app-asg</title>
<path fill="none" stroke="#000000" d="M786.3922,-431.5798C789.1917,-421.1759 792.6248,-407.9084 795.29,-396 799.9134,-375.3425 804.3254,-351.8317 807.4957,-334.0215"/>
<polygon fill="#000000" stroke="#000000" points="810.9727,-334.457 809.2554,-324.0023 804.0782,-333.2461 810.9727,-334.457"/>
</g>
<!-- aws_cloudwatch_metric_alarm.app_cpu_alarm_up&#45;&gt;aws_autoscaling_policy.app&#45;policy&#45;up -->
<g id="edge52" class="edge">
<title>aws_cloudwatch_metric_alarm.app_cpu_alarm_up-&gt;aws_autoscaling_policy.app-policy-up</title>
<path fill="none" stroke="#000000" d="M742.9754,-432.2022C721.9529,-422.4369 695.7101,-410.2467 673.4388,-399.9014"/>
<polygon fill="#000000" stroke="#000000" points="674.7077,-396.6317 664.1639,-395.593 671.7587,-402.9802 674.7077,-396.6317"/>
</g>
<!-- aws_cloudwatch_metric_alarm.httpd_cpu_alarm_down -->
<g id="node36" class="node">
<title>aws_cloudwatch_metric_alarm.httpd_cpu_alarm_down</title>
<ellipse fill="none" stroke="#000000" cx="1685.29" cy="-378" rx="225.6739" ry="18"/>
<text text-anchor="middle" x="1685.29" y="-373.8" font-family="Times,serif" font-size="14.00" fill="#000000">aws_cloudwatch_metric_alarm.httpd_cpu_alarm_down</text>
</g>
<!-- aws_cloudwatch_metric_alarm.httpd_cpu_alarm_down&#45;&gt;aws_autoscaling_group.httpd&#45;asg -->
<g id="edge53" class="edge">
<title>aws_cloudwatch_metric_alarm.httpd_cpu_alarm_down-&gt;aws_autoscaling_group.httpd-asg</title>
<path fill="none" stroke="#000000" d="M1711.7714,-360.0139C1723.7007,-350.6097 1736.95,-338.1171 1745.29,-324 1756.462,-305.0892 1761.6907,-280.6676 1764.1377,-262.0366"/>
<polygon fill="#000000" stroke="#000000" points="1767.6169,-262.4164 1765.256,-252.088 1760.6608,-261.6344 1767.6169,-262.4164"/>
</g>
<!-- aws_cloudwatch_metric_alarm.httpd_cpu_alarm_down&#45;&gt;aws_autoscaling_policy.httpd&#45;policy&#45;down -->
<g id="edge54" class="edge">
<title>aws_cloudwatch_metric_alarm.httpd_cpu_alarm_down-&gt;aws_autoscaling_policy.httpd-policy-down</title>
<path fill="none" stroke="#000000" d="M1653.5702,-360.0171C1636.9281,-350.5822 1616.3623,-338.9228 1598.6018,-328.8539"/>
<polygon fill="#000000" stroke="#000000" points="1600.0311,-325.6409 1589.6056,-323.7537 1596.5787,-331.7304 1600.0311,-325.6409"/>
</g>
<!-- aws_db_instance.app&#45;db -->
<g id="node37" class="node">
<title>aws_db_instance.app-db</title>
<ellipse fill="none" stroke="#000000" cx="349.29" cy="-306" rx="106.4679" ry="18"/>
<text text-anchor="middle" x="349.29" y="-301.8" font-family="Times,serif" font-size="14.00" fill="#000000">aws_db_instance.app-db</text>
</g>
<!-- aws_db_instance.app&#45;db&#45;&gt;aws_db_subnet_group.default -->
<g id="edge56" class="edge">
<title>aws_db_instance.app-db-&gt;aws_db_subnet_group.default</title>
<path fill="none" stroke="#000000" d="M336.6646,-287.6961C329.6206,-277.3286 320.7826,-264.0587 313.29,-252 300.314,-231.1159 286.4205,-206.9681 276.2619,-188.9464"/>
<polygon fill="#000000" stroke="#000000" points="279.2607,-187.1382 271.3147,-180.1303 273.1562,-190.5639 279.2607,-187.1382"/>
</g>
<!-- aws_db_instance.app&#45;db&#45;&gt;aws_security_group.db&#45;sg -->
<g id="edge55" class="edge">
<title>aws_db_instance.app-db-&gt;aws_security_group.db-sg</title>
<path fill="none" stroke="#000000" d="M363.1689,-287.8314C369.5036,-279.5386 377.1284,-269.557 384.0826,-260.4533"/>
<polygon fill="#000000" stroke="#000000" points="386.9353,-262.4847 390.2244,-252.4133 381.3726,-258.2353 386.9353,-262.4847"/>
</g>
<!-- aws_cloudwatch_metric_alarm.httpd_cpu_alarm_up -->
<g id="node38" class="node">
<title>aws_cloudwatch_metric_alarm.httpd_cpu_alarm_up</title>
<ellipse fill="none" stroke="#000000" cx="2149.29" cy="-378" rx="214.0742" ry="18"/>
<text text-anchor="middle" x="2149.29" y="-373.8" font-family="Times,serif" font-size="14.00" fill="#000000">aws_cloudwatch_metric_alarm.httpd_cpu_alarm_up</text>
</g>
<!-- aws_cloudwatch_metric_alarm.httpd_cpu_alarm_up&#45;&gt;aws_autoscaling_policy.httpd&#45;policy&#45;up -->
<g id="edge59" class="edge">
<title>aws_cloudwatch_metric_alarm.httpd_cpu_alarm_up-&gt;aws_autoscaling_policy.httpd-policy-up</title>
<path fill="none" stroke="#000000" d="M2102.5662,-360.3868C2075.7935,-350.2945 2042.0298,-337.5668 2013.897,-326.9618"/>
<polygon fill="#000000" stroke="#000000" points="2014.7934,-323.5593 2004.2016,-323.307 2012.3243,-330.1094 2014.7934,-323.5593"/>
</g>
<!-- aws_cloudwatch_metric_alarm.httpd_cpu_alarm_up&#45;&gt;aws_autoscaling_group.httpd&#45;asg -->
<g id="edge60" class="edge">
<title>aws_cloudwatch_metric_alarm.httpd_cpu_alarm_up-&gt;aws_autoscaling_group.httpd-asg</title>
<path fill="none" stroke="#000000" d="M2151.7001,-359.9897C2153.3338,-339.526 2152.4219,-306.5691 2133.29,-288 2128.5753,-283.4239 1980.6592,-262.7284 1874.0788,-248.3306"/>
<polygon fill="#000000" stroke="#000000" points="1874.278,-244.8258 1863.8998,-246.9576 1873.3422,-251.763 1874.278,-244.8258"/>
</g>
<!-- aws_cloudwatch_metric_alarm.app_cpu_alarm_down -->
<g id="node39" class="node">
<title>aws_cloudwatch_metric_alarm.app_cpu_alarm_down</title>
<ellipse fill="none" stroke="#000000" cx="303.29" cy="-450" rx="219.8556" ry="18"/>
<text text-anchor="middle" x="303.29" y="-445.8" font-family="Times,serif" font-size="14.00" fill="#000000">aws_cloudwatch_metric_alarm.app_cpu_alarm_down</text>
</g>
<!-- aws_cloudwatch_metric_alarm.app_cpu_alarm_down&#45;&gt;aws_autoscaling_group.app&#45;asg -->
<g id="edge64" class="edge">
<title>aws_cloudwatch_metric_alarm.app_cpu_alarm_down-&gt;aws_autoscaling_group.app-asg</title>
<path fill="none" stroke="#000000" d="M350.0197,-432.3318C371.9415,-423.0395 397.8875,-410.5491 419.29,-396 438.5299,-382.921 436.3891,-370.2169 457.29,-360 497.2918,-340.4462 603.1812,-325.9011 688.9751,-316.8632"/>
<polygon fill="#000000" stroke="#000000" points="689.4809,-320.3295 699.066,-315.8155 688.758,-313.367 689.4809,-320.3295"/>
</g>
<!-- aws_cloudwatch_metric_alarm.app_cpu_alarm_down&#45;&gt;aws_autoscaling_policy.app&#45;policy&#45;down -->
<g id="edge65" class="edge">
<title>aws_cloudwatch_metric_alarm.app_cpu_alarm_down-&gt;aws_autoscaling_policy.app-policy-down</title>
<path fill="none" stroke="#000000" d="M286.8878,-431.8314C279.2485,-423.3694 270.0217,-413.1489 261.6694,-403.8971"/>
<polygon fill="#000000" stroke="#000000" points="264.2121,-401.4906 254.9131,-396.4133 259.0162,-406.1813 264.2121,-401.4906"/>
</g>
</g>
</svg>